<svg xmlns="http://www.w3.org/2000/svg" width="21" height="17" viewBox="0 0 21 17">
    <path fill="#FFF" fill-rule="evenodd" d="M6.54 16.75c7.547 0 11.675-6.426 11.675-11.997 0-.183 0-.365-.012-.546a8.466 8.466 0 0 0 2.047-2.183 8.002 8.002 0 0 1-2.356.664A4.218 4.218 0 0 0 19.698.355a8.091 8.091 0 0 1-2.606 1.024 4.03 4.03 0 0 0-5.806-.183 4.297 4.297 0 0 0-1.187 4.03C6.8 5.054 3.726 3.453 1.642.82.553 2.747 1.11 5.21 2.913 6.448a3.99 3.99 0 0 1-1.863-.527v.053c.001 2.007 1.378 3.736 3.292 4.133a3.976 3.976 0 0 1-1.852.072c.537 1.719 2.078 2.895 3.833 2.93A8.093 8.093 0 0 1 .25 14.855a11.394 11.394 0 0 0 6.29 1.89" opacity=".8"/>
</svg>
