<svg xmlns="http://www.w3.org/2000/svg" width="21" height="22" viewBox="0 0 21 22">
    <path fill="#FFF" fill-rule="evenodd" d="M6.62 1.09c-1.628.077-3.04.493-4.179 1.677C1.298 3.957.905 5.436.831 7.117c-.045 1.05-.313 8.978.463 11.057.524 1.403 1.554 2.481 2.91 3.03.634.256 1.356.43 2.416.481 8.86.419 12.145.19 13.53-3.51.246-.66.415-1.413.462-2.516.405-9.272-.066-11.282-1.61-12.892C17.777 1.492 16.336.623 6.62 1.09M6.7 19.82c-.97-.046-1.496-.215-1.848-.357a3.329 3.329 0 0 1-1.888-1.965c-.591-1.58-.395-9.084-.342-10.298.051-1.19.282-2.276 1.086-3.115.995-1.036 2.28-1.544 11.034-1.132 1.142.054 2.186.295 2.992 1.132.995 1.036 1.489 2.388 1.087 11.489-.044 1.01-.206 1.558-.342 1.924-.901 2.408-2.973 2.743-11.779 2.321M14.84 5.857c0 .686.534 1.243 1.194 1.243.66 0 1.195-.557 1.195-1.243s-.536-1.243-1.195-1.243c-.66 0-1.194.557-1.194 1.243m-9.227 5.53c0 2.938 2.287 5.32 5.11 5.32 2.821 0 5.109-2.382 5.109-5.32s-2.288-5.318-5.11-5.318c-2.822 0-5.11 2.38-5.11 5.318m1.794 0c0-1.906 1.484-3.453 3.316-3.453 1.832 0 3.317 1.547 3.317 3.453 0 1.908-1.485 3.454-3.317 3.454s-3.316-1.546-3.316-3.454" opacity=".8"/>
</svg>
