<svg xmlns="http://www.w3.org/2000/svg" width="21" height="15" viewBox="0 0 21 15">
    <path fill="#FFF" fill-rule="evenodd" d="M8.488 10.099V4.242c1.993.978 3.536 1.923 5.36 2.942-1.505.872-3.367 1.85-5.36 2.915m11.103-8.77c-.344-.473-.93-.84-1.553-.962C16.205.003 4.771.002 2.94.367c-.5.097-.945.334-1.328.701C0 2.63.505 11.003.893 12.358c.164.588.375 1.012.64 1.29.343.367.812.62 1.351.733 1.51.326 9.284.508 15.122.05a2.583 2.583 0 0 0 1.39-.743c1.49-1.555 1.388-10.399.195-12.36" opacity=".8"/>
</svg>
