<svg xmlns="http://www.w3.org/2000/svg" width="22" height="20" viewBox="0 0 22 20">
    <path fill="#333" fill-rule="evenodd" d="M21.753 6.08C21.436 2.651 18.958.165 15.856.165a5.89 5.89 0 0 0-5.021 2.832C9.78 1.232 7.966.166 5.935.166 2.831.166.354 2.652.036 6.08c-.026.153-.129.948.184 2.248.452 1.875 1.496 3.58 3.019 4.928L10.83 20l7.72-6.743c1.523-1.35 2.566-3.055 3.019-4.93.312-1.298.208-2.095.184-2.248zm-1 2.059c-.414 1.713-1.37 3.271-2.763 4.507l-7.155 6.25-7.033-6.248C2.407 11.41 1.452 9.852 1.038 8.14.74 6.909.864 6.216.864 6.209l.006-.04C1.142 3.168 3.272.989 5.934.989c1.962 0 3.691 1.18 4.512 3.082l.387.896.386-.896c.806-1.873 2.628-3.082 4.639-3.082 2.66 0 4.79 2.18 5.068 5.22 0 .008.123.703-.174 1.931z"/>
</svg>
