<svg xmlns="http://www.w3.org/2000/svg" xmlns:xlink="http://www.w3.org/1999/xlink" width="15" height="11" viewBox="0 0 15 11">
    <defs>
        <path id="a" d="M.002.029H14.97v10.97H0z"/>
    </defs>
    <g fill="none" fill-rule="evenodd">
        <mask id="b" fill="#fff">
            <use xlink:href="#a"/>
        </mask>
        <path fill="#0A0B09" d="M11.252 3.207H1.056L3.2.69a.41.41 0 0 0-.03-.56.366.366 0 0 0-.535.032L.221 2.997a.943.943 0 0 0 0 1.212l2.414 2.837a.367.367 0 0 0 .534.032.41.41 0 0 0 .03-.56L1.057 4h10.196c1.634 0 2.962 1.392 2.962 3.104 0 1.711-1.328 3.103-2.962 3.103h-1.8a.388.388 0 0 0-.378.397c0 .219.169.396.378.396h1.8c2.05 0 3.719-1.748 3.719-3.896 0-2.149-1.668-3.897-3.719-3.897" mask="url(#b)"/>
    </g>
</svg>
