<svg xmlns="http://www.w3.org/2000/svg" width="20" height="21" viewBox="0 0 20 21">
    <path fill="#FFF" fill-rule="evenodd" d="M16.117 13.113a3.854 3.854 0 0 0-3.258 1.817l-5.42-2.902c.194-.47.301-.987.301-1.528s-.107-1.057-.302-1.528L12.86 6.07a3.854 3.854 0 0 0 3.258 1.817c2.134 0 3.87-1.77 3.87-3.944S18.251 0 16.117 0c-2.134 0-3.87 1.769-3.87 3.943 0 .542.108 1.058.302 1.528L7.13 8.373A3.854 3.854 0 0 0 3.87 6.557C1.736 6.557 0 8.325 0 10.5s1.736 3.943 3.87 3.943a3.854 3.854 0 0 0 3.258-1.816l5.421 2.902c-.194.47-.302.986-.302 1.528 0 2.174 1.736 3.943 3.87 3.943 2.134 0 3.87-1.769 3.87-3.943 0-2.175-1.736-3.944-3.87-3.944zm0-12.436c1.767 0 3.205 1.466 3.205 3.266 0 1.801-1.438 3.266-3.205 3.266-1.767 0-3.205-1.465-3.205-3.266 0-1.8 1.438-3.266 3.205-3.266zM3.87 13.766c-1.767 0-3.205-1.465-3.205-3.266 0-1.8 1.438-3.266 3.205-3.266 1.768 0 3.206 1.465 3.206 3.266 0 1.8-1.438 3.266-3.206 3.266zm12.247 6.557c-1.767 0-3.205-1.466-3.205-3.266 0-1.801 1.438-3.266 3.205-3.266 1.767 0 3.205 1.465 3.205 3.266 0 1.8-1.438 3.266-3.205 3.266z"/>
</svg>
